<svg xmlns="http://www.w3.org/2000/svg" viewBox="0 0 1640 624">
  <defs>
    <linearGradient id="g" x1="0" y1="0" x2="1" y2="1">
      <stop offset="0%" stop-color="#37B7EC"/>
      <stop offset="100%" stop-color="#1a7db0"/>
    </linearGradient>
  </defs>
  <rect width="1640" height="624" fill="url(#g)"/>
  <g opacity="0.12" fill="#fff">
    <circle cx="200" cy="120" r="4"/>
    <circle cx="350" cy="80" r="3"/>
    <circle cx="1400" cy="100" r="4"/>
    <circle cx="1500" cy="480" r="3"/>
    <circle cx="180" cy="500" r="4"/>
    <circle cx="1300" cy="540" r="3"/>
    <circle cx="900" cy="70" r="3"/>
    <circle cx="800" cy="580" r="4"/>
  </g>
  <!-- Área safe centrada 820x312 (visible en móvil) -->
  <g transform="translate(410 156)">
    <!-- Avión de papel decorativo -->
    <g transform="translate(20 40)" opacity="0.9">
      <path d="M280 10 240 240c-3 15-12 18-24 11l-64-47-31 30c-3 3-6 6-13 6l4-65 118-107c5-4-1-7-8-3L107 150 45 130c-14-4-14-14 3-20L272 -1c11-4 21 2 17 17z" fill="#fff"/>
    </g>
    <text x="380" y="90" font-family="system-ui, -apple-system, sans-serif" font-weight="800" font-size="52" fill="#ffffff">Grupos Telegram</text>
    <text x="380" y="150" font-family="system-ui, -apple-system, sans-serif" font-weight="800" font-size="52" fill="#ffffff">LatAm y España</text>
    <text x="380" y="200" font-family="system-ui, -apple-system, sans-serif" font-weight="400" font-size="22" fill="#ffffff" opacity="0.9">Directorio con los mejores grupos y canales</text>
    <text x="380" y="230" font-family="system-ui, -apple-system, sans-serif" font-weight="400" font-size="18" fill="#ffffff" opacity="0.75">Ofertas · Cripto · Empleo · Gaming · Anime · Bots</text>
    <rect x="380" y="255" width="320" height="48" rx="10" fill="#ffffff"/>
    <text x="540" y="288" text-anchor="middle" font-family="system-ui, -apple-system, sans-serif" font-weight="700" font-size="20" fill="#229ED9">grupostelegramlatam.com</text>
  </g>
</svg>
